<svg width="26" height="26" viewBox="0 0 26 26" fill="none" xmlns="http://www.w3.org/2000/svg">
<g clip-path="url(#clip0_431_5808)">
<path d="M12.9032 25.3508C6.02785 25.3508 0.454102 19.7771 0.454102 12.9025C0.454102 6.02712 6.02785 0.453369 12.9032 0.453369C19.7778 0.453369 25.3515 6.02712 25.3515 12.9025C25.3515 19.7771 19.7778 25.3508 12.9032 25.3508Z" fill="url(#paint0_radial_431_5808)"/>
<path fill-rule="evenodd" clip-rule="evenodd" d="M0 12.9025C0 20.0281 5.77687 25.805 12.9025 25.805C20.0281 25.805 25.805 20.0281 25.805 12.9025C25.805 5.77687 20.0281 0 12.9025 0C5.77687 0 0 5.77687 0 12.9025ZM24.3847 12.9025C24.3847 19.2441 19.2441 24.3847 12.9025 24.3847C6.56094 24.3847 1.42025 19.2441 1.42025 12.9025C1.42025 6.56094 6.56094 1.42025 12.9025 1.42025C19.2441 1.42025 24.3847 6.56094 24.3847 12.9025Z" fill="#8DC641"/>
<path fill-rule="evenodd" clip-rule="evenodd" d="M0 12.9025C0 20.0281 5.77687 25.805 12.9025 25.805C20.0281 25.805 25.805 20.0281 25.805 12.9025C25.805 5.77687 20.0281 0 12.9025 0C5.77687 0 0 5.77687 0 12.9025ZM24.3847 12.9025C24.3847 19.2441 19.2441 24.3847 12.9025 24.3847C6.56094 24.3847 1.42025 19.2441 1.42025 12.9025C1.42025 6.56094 6.56094 1.42025 12.9025 1.42025C19.2441 1.42025 24.3847 6.56094 24.3847 12.9025Z" fill="url(#paint1_linear_431_5808)"/>
<path fill-rule="evenodd" clip-rule="evenodd" d="M12.1359 16.5514V17.6402H6.04785L6.04948 17.6085C6.10635 16.5855 6.37285 15.8413 6.87498 15.223C7.28935 14.7144 7.78904 14.3341 8.81523 13.6906C8.81198 13.6922 9.17841 13.4631 9.28404 13.3949C9.83654 13.0414 10.1908 12.766 10.4703 12.441C10.8221 12.0331 11.0065 11.5862 11.0065 11.0622C11.0065 10.0457 10.2875 9.34129 9.24829 9.34129C8.04335 9.34129 7.42341 10.2594 7.39091 11.6382L7.3901 11.6675H6.30785L6.30623 11.639L6.29485 11.3896C6.29485 9.54442 7.49573 8.31592 9.29948 8.31592C11.065 8.31592 12.2147 9.38679 12.2147 11.0378C12.2147 11.8812 11.9141 12.5645 11.3324 13.1698C10.8944 13.6264 10.4492 13.936 9.43354 14.5527L9.41973 14.5608L9.40916 14.5673L9.3921 14.5779L9.25641 14.6583H9.2556L9.06304 14.7729C8.57798 15.0637 8.28385 15.2685 8.02466 15.5163C7.70535 15.8218 7.49491 16.1565 7.39335 16.5514H12.1367H12.1359ZM19.7572 14.3162V15.3985H18.4929V17.6402H17.4025V15.3985H13.3441V14.2309L17.4375 8.31592H18.4929V14.3162H19.7564H19.7572ZM17.4025 14.313H14.5295L17.4025 10.0441V14.3122V14.313Z" fill="white"/>
<path fill-rule="evenodd" clip-rule="evenodd" d="M12.1359 16.5514V17.6402H6.04785L6.04948 17.6085C6.10635 16.5855 6.37285 15.8413 6.87498 15.223C7.28935 14.7144 7.78904 14.3341 8.81523 13.6906C8.81198 13.6922 9.17841 13.4631 9.28404 13.3949C9.83654 13.0414 10.1908 12.766 10.4703 12.441C10.8221 12.0331 11.0065 11.5862 11.0065 11.0622C11.0065 10.0457 10.2875 9.34129 9.24829 9.34129C8.04335 9.34129 7.42341 10.2594 7.39091 11.6382L7.3901 11.6675H6.30785L6.30623 11.639L6.29485 11.3896C6.29485 9.54442 7.49573 8.31592 9.29948 8.31592C11.065 8.31592 12.2147 9.38679 12.2147 11.0378C12.2147 11.8812 11.9141 12.5645 11.3324 13.1698C10.8944 13.6264 10.4492 13.936 9.43354 14.5527L9.41973 14.5608L9.40916 14.5673L9.3921 14.5779L9.25641 14.6583H9.2556L9.06304 14.7729C8.57798 15.0637 8.28385 15.2685 8.02466 15.5163C7.70535 15.8218 7.49491 16.1565 7.39335 16.5514H12.1367H12.1359ZM19.7572 14.3162V15.3985H18.4929V17.6402H17.4025V15.3985H13.3441V14.2309L17.4375 8.31592H18.4929V14.3162H19.7564H19.7572ZM17.4025 14.313H14.5295L17.4025 10.0441V14.3122V14.313Z" fill="url(#paint2_radial_431_5808)"/>
</g>
<defs>
<radialGradient id="paint0_radial_431_5808" cx="0" cy="0" r="1" gradientUnits="userSpaceOnUse" gradientTransform="translate(6.39264 6.05579) scale(27.0508 27.0508)">
<stop stop-color="#444444"/>
<stop offset="1" stop-color="#111111"/>
</radialGradient>
<linearGradient id="paint1_linear_431_5808" x1="-12.9025" y1="12.9025" x2="12.9025" y2="38.7075" gradientUnits="userSpaceOnUse">
<stop stop-color="#A3D167"/>
<stop offset="0.5094" stop-color="#8DC641"/>
<stop offset="1" stop-color="#709E34"/>
</linearGradient>
<radialGradient id="paint2_radial_431_5808" cx="0" cy="0" r="1" gradientUnits="userSpaceOnUse" gradientTransform="translate(6.04785 8.31592) rotate(44.9994) scale(19.3878 14.1783)">
<stop stop-color="white" stop-opacity="0.5"/>
<stop offset="0.48941" stop-color="white" stop-opacity="0.392"/>
<stop offset="1" stop-opacity="0.12"/>
</radialGradient>
<clipPath id="clip0_431_5808">
<rect width="26" height="26" fill="white"/>
</clipPath>
</defs>
</svg>
